<?xml version="1.0" encoding="UTF-8"?>
<svg id="Layer_2" data-name="Layer 2" xmlns="http://www.w3.org/2000/svg" viewBox="0 0 256.75 133.04">
  <defs>
    <style>
      .cls-1 {
        fill: #fff;
      }
    </style>
  </defs>
  <g id="Layer_1-2" data-name="Layer 1">
    <g>
      <path class="cls-1" d="M20.75,133.04c-8.54,0-14.04-2.8-17.67-8.27-8.63-12.99-2.03-30.39,57.47-85.01l17.04,18.56c-27.51,25.26-40.55,39.87-46.72,48.07,18.58-4.7,65.86-22.84,185.48-86.56l11.85,22.24c-65.63,34.96-116.65,60.07-151.64,74.63-26.44,11.01-44.02,16.34-55.81,16.34Z"/>
      <path class="cls-1" d="M214.03,80.51c-2.97-8.61-5.7-22.16-1.82-37.8.74-2.98,1.66-5.8,2.71-8.44-3.06.14-6.2.1-9.38-.15-12.44-.98-24.58-5.46-36.09-13.3L183.65,0c7.83,5.34,15.87,8.37,23.87,9,18.83,1.46,36.52-8.2,36.7-8.3l12.52,21.87c-3.72,2.18-16.18,10.52-20.07,26.22-2.4,9.66-.68,18.11,1.18,23.51l-23.82,8.22Z"/>
    </g>
  </g>
</svg>